<svg xmlns="http://www.w3.org/2000/svg" viewBox="28 1 238 238">
<defs>
  <linearGradient id="lav" x1="0" y1="0" x2="1" y2="1">
    <stop offset="0%" stop-color="#B8A7FF"/>
    <stop offset="100%" stop-color="#8F79F4"/>
  </linearGradient>
  <linearGradient id="pur" x1="0" y1="0" x2="1" y2="1">
    <stop offset="0%" stop-color="#7657F6"/>
    <stop offset="100%" stop-color="#4D2ED6"/>
  </linearGradient>
  <linearGradient id="nav" x1="0" y1="0" x2="1" y2="1">
    <stop offset="0%" stop-color="#08264C"/>
    <stop offset="100%" stop-color="#001A3A"/>
  </linearGradient>
</defs>
<g transform="translate(22 20)">
  <path d="M18 28 L58 44 L58 156 L18 172 Q8 175 8 162 L8 38 Q8 24 18 28 Z" fill="url(#lav)"/>
  <path d="M76 18 L122 38 L122 162 L76 182 Q64 186 64 170 L64 30 Q64 14 76 18 Z" fill="url(#pur)"/>
  <path d="M145 10 L235 48 Q244 52 244 64 L244 136 Q244 148 235 152 L145 190 Q132 195 132 177 L132 23 Q132 5 145 10 Z" fill="url(#nav)"/>
  <path d="M167 76 L167 124 Q167 134 176 129 L214 105 Q222 100 214 95 L176 71 Q167 66 167 76 Z" fill="#FFFFFF"/>
</g>
</svg>
